<svg width="1342" height="135" xmlns="http://www.w3.org/2000/svg" fill="none">

 <g>
  <title>Layer 1</title>
  <path id="svg_2" fill="#F4EBFF" d="m1334.3,70.0817c-1.69,0 -3.39,0.725 -4.6,1.6916c-1.93,-4.1082 -7.98,-7.0082 -15,-7.0082c-4.35,0 -8.46,1.2083 -11.36,2.9c-1.94,-3.625 -5.57,-6.0416 -9.92,-6.0416c-3.15,0 -5.81,1.2083 -7.74,3.1416c-4.12,-6.0415 -12.34,-10.1498 -22.02,-10.1498c-6.77,0 -12.82,1.9333 -17.17,5.3166c-3.63,-9.9081 -13.3,-17.158 -24.43,-17.158c-11.13,0 -20.8,7.0082 -24.43,16.9163c-1.94,-0.9666 -3.87,-1.4499 -6.05,-1.4499c-7.98,0 -14.51,6.5248 -14.51,14.4996c0,1.45 0.24,2.6583 0.48,3.8666l19.59,0l8.47,0l34.35,0l7.26,0l36.04,0l4.84,0l11.85,0l4.6,0l23.7,0l2.42,0l11.13,0l0,-0.2416c-0.73,-3.3833 -3.63,-6.2832 -7.5,-6.2832z"/>
  <path id="svg_3" fill="#F4EBFF" d="m1020.32,61.8653c-2.18,0 -4.35,0.9666 -5.81,2.1749c-1.21,-9.6664 -9.43,-17.3996 -19.589,-17.3996c-8.709,0 -15.966,5.7999 -18.626,13.5331c-2.419,-4.1083 -6.774,-6.7666 -11.853,-6.7666c-6.532,0 -11.853,4.5916 -13.305,10.3915c-1.451,-1.2083 -3.144,-1.9333 -5.08,-1.9333c-4.596,0 -8.224,3.6249 -8.224,8.2165c0,0.9666 0.242,1.9333 0.484,2.6582l14.03,0l1.693,0l22.738,0l0.484,0l35.078,0l1.45,0l15.24,0c0.24,-0.7249 0.48,-1.6916 0.48,-2.6582c-0.48,-4.3499 -4.35,-8.2165 -9.19,-8.2165z"/>
  <path id="svg_4" fill="#F4EBFF" d="m82.4867,28.0325c-2.177,0 -4.3541,0.9667 -5.8055,2.175c-1.2095,-9.6665 -9.4339,-17.3996 -19.5936,-17.3996c-8.7083,0 -15.9652,5.7998 -18.626,13.533c-2.419,-4.1083 -6.7731,-6.7665 -11.853,-6.7665c-6.5312,0 -11.8529,4.5915 -13.3043,10.3914c-1.4514,-1.2083 -3.1446,-1.9333 -5.07981,-1.9333c-4.59604,0 -8.22449,3.6249 -8.22449,8.2165c0,0.9667 0.2419,1.9333 0.48379,2.6583l14.03001,0l1.6933,0l22.7383,0l0.4837,0l35.0751,0l1.4513,0l15.2395,0c0.2419,-0.725 0.4838,-1.6916 0.4838,-2.6583c-0.4838,-4.3499 -4.3541,-8.2165 -9.1921,-8.2165z"/>
  <path id="svg_5" fill="#F4EBFF" d="m453.796,77.3314c-1.935,0 -3.87,0.725 -5.079,1.9333c-2.177,-4.5916 -8.951,-7.7332 -17.175,-7.7332c-5.08,0 -9.676,1.2083 -12.821,3.3833c-2.177,-4.1083 -6.289,-7.0082 -11.369,-7.0082c-3.386,0 -6.531,1.45 -8.95,3.6249c-4.596,-6.7665 -14.03,-11.358 -24.915,-11.358c-7.499,0 -14.514,2.1749 -19.594,6.0415c-4.112,-11.3581 -14.997,-19.3329 -27.818,-19.3329c-12.579,0 -23.464,7.9748 -27.818,19.0912c-2.177,-0.9666 -4.354,-1.4499 -7.015,-1.4499c-9.192,0 -16.449,7.4915 -16.449,16.4329c0,1.45 0.242,2.9 0.726,4.3499l22.254,0l9.434,0l38.945,0l8.225,0l40.639,0l5.321,0l13.305,0l5.079,0l26.851,0l2.661,0l12.578,0l0,-0.2416c0.484,-4.3499 -2.902,-7.7332 -7.015,-7.7332z"/>
  <path id="svg_6" fill="#F4EBFF" d="m837.929,126.147c-2.177,0 -4.112,0.967 -5.564,2.175c-2.419,-4.833 -9.676,-8.458 -18.384,-8.458c-5.563,0 -10.401,1.45 -13.788,3.625c-2.419,-4.35 -7.015,-7.492 -12.337,-7.492c-3.628,0 -7.015,1.45 -9.675,3.867c-4.838,-7.25 -14.998,-12.325 -26.851,-12.325c-8.225,0 -15.723,2.417 -21.045,6.525c-4.596,-12.325 -16.207,-21.0243 -29.995,-21.0243c-13.788,0 -25.399,8.6993 -29.995,20.7833c-2.177,-0.967 -4.838,-1.692 -7.499,-1.692c-9.918,0 -17.9,7.975 -17.9,17.883c0,1.691 0.241,3.141 0.725,4.833l23.948,0l10.16,0l42.09,0l8.708,0l44.025,0l5.806,0l14.513,0l5.564,0l29.028,0l2.902,0l13.547,0l0,-0.242c0.241,-4.833 -3.387,-8.458 -7.983,-8.458z"/>
  <path id="svg_7" fill="#F4EBFF" d="m681.18,35.7658c-1.694,0 -3.145,0.7249 -4.354,1.6916c-1.936,-3.8666 -7.499,-6.5249 -14.272,-6.5249c-4.113,0 -7.983,0.9667 -10.644,2.9c-1.693,-3.3833 -5.322,-5.7999 -9.434,-5.7999c-2.903,0 -5.563,1.2083 -7.499,2.8999c-3.87,-5.5582 -11.611,-9.6664 -20.803,-9.6664c-6.289,0 -12.095,1.9333 -16.449,5.0749c-3.386,-9.4248 -12.578,-16.1913 -23.222,-16.1913c-10.643,0 -19.593,6.7665 -23.222,16.1913c-1.693,-0.725 -3.628,-1.2083 -5.805,-1.2083c-7.741,0 -13.788,6.2832 -13.788,13.7747c0,1.2083 0.241,2.4166 0.483,3.6249l18.626,0l7.983,0l32.656,0l6.773,0l34.108,0l4.596,0l11.127,0l4.354,0l22.496,0l2.177,0l10.402,0l0,-0.2417c0,-3.6249 -2.903,-6.5248 -6.289,-6.5248z"/>
 </g>
</svg>