<svg width="50" height="44" viewBox="0 0 50 44" fill="none" xmlns="http://www.w3.org/2000/svg">
<path d="M16.62 43.24C13.46 43.24 10.64 42.38 8.16 40.66C5.72 38.9 3.82 36.42 2.46 33.22C1.1 29.98 0.42 26.24 0.42 22C0.42 17.76 1.1 14.04 2.46 10.84C3.82 7.6 5.72 5.12 8.16 3.4C10.64 1.64 13.46 0.759997 16.62 0.759997C19.82 0.759997 22.64 1.64 25.08 3.4C27.52 5.12 29.42 7.6 30.78 10.84C32.14 14.04 32.82 17.76 32.82 22C32.82 26.24 32.14 29.98 30.78 33.22C29.42 36.42 27.52 38.9 25.08 40.66C22.64 42.38 19.82 43.24 16.62 43.24ZM16.62 41.38C19.42 41.38 21.9 40.6 24.06 39.04C26.22 37.48 27.88 35.24 29.04 32.32C30.24 29.4 30.84 25.96 30.84 22C30.84 18.04 30.24 14.6 29.04 11.68C27.88 8.76 26.22 6.52 24.06 4.96C21.9 3.4 19.42 2.62 16.62 2.62C13.82 2.62 11.34 3.4 9.18 4.96C7.06 6.52 5.4 8.76 4.2 11.68C3.04 14.6 2.46 18.04 2.46 22C2.46 25.96 3.04 29.4 4.2 32.32C5.4 35.24 7.06 37.48 9.18 39.04C11.34 40.6 13.82 41.38 16.62 41.38ZM49.3978 0.999997V43H47.4178V2.86H36.8578V0.999997H49.3978Z" fill="#1E0606" fill-opacity="0.05"/>
</svg>
